<?xml version="1.0" encoding="utf-8"?>
<!-- Generator: Adobe Illustrator 26.5.0, SVG Export Plug-In . SVG Version: 6.00 Build 0)  -->
<svg version="1.1" id="Ebene_1" xmlns="http://www.w3.org/2000/svg" xmlns:xlink="http://www.w3.org/1999/xlink" x="0px" y="0px"
	 viewBox="0 0 32 32" style="enable-background:new 0 0 32 32;" xml:space="preserve">
<style type="text/css">
	.st0{opacity:0.75;}
	.st1{fill:#B3B3B3;}
	.st2{fill:#36ABC6;}
</style>
<g class="st0">
	<polygon points="16,1.3 0.5,12.5 6.4,30.7 25.6,30.7 31.5,12.5 	"/>
</g>
<g>
	<path class="st1" d="M16,3.5l13.3,9.7l-5.1,15.7H7.8L2.7,13.1L16,3.5 M16,2.2L1.5,12.7l5.5,17h18l5.5-17L16,2.2L16,2.2z"/>
</g>
<g>
	<polygon class="st2" points="16,6.7 12.5,9.2 13.8,13.3 18.2,13.3 19.5,9.2 	"/>
</g>
<g>
	<polygon class="st2" points="16,21.3 19.5,18.8 18.2,14.7 13.8,14.7 12.5,18.8 	"/>
</g>
<g>
	<polygon class="st2" points="11.8,19.9 8.2,22.5 9.6,26.6 13.9,26.6 15.2,22.5 	"/>
</g>
<g>
	<polygon class="st2" points="20.2,19.9 16.8,22.5 18.1,26.6 22.4,26.6 23.8,22.5 	"/>
</g>
<g>
	<polygon class="st2" points="23,11.7 19.5,14.2 20.8,18.3 25.2,18.3 26.5,14.2 	"/>
</g>
<g>
	<polygon class="st2" points="9,11.7 5.5,14.2 6.8,18.3 11.2,18.3 12.5,14.2 	"/>
</g>
</svg>
