<?xml version="1.0" encoding="utf-8"?>
<!-- Generator: Adobe Illustrator 26.5.0, SVG Export Plug-In . SVG Version: 6.00 Build 0)  -->
<svg version="1.1" id="Ebene_1" xmlns="http://www.w3.org/2000/svg" xmlns:xlink="http://www.w3.org/1999/xlink" x="0px" y="0px"
	 viewBox="0 0 32 32" style="enable-background:new 0 0 32 32;" xml:space="preserve">
<style type="text/css">
	.st0{opacity:0.75;}
	.st1{fill:#B3B3B3;}
	.st2{fill:#64D080;}
</style>
<g class="st0">
	<polygon points="2.2,8.1 2.2,23.9 16,31.9 29.8,23.9 29.8,8.1 16,0.1 	"/>
</g>
<g>
	<path class="st1" d="M16,2.1l12,6.9v13.9l-12,6.9L4,22.9V9.1L16,2.1 M16,1L3,8.5v15L16,31l13-7.5v-15L16,1L16,1z"/>
</g>
<g class="st0">
	<polygon class="st2" points="13,14.3 13,17.7 16,19.5 19,17.7 19,14.3 16,12.5 	"/>
</g>
<g class="st0">
	<polygon class="st2" points="17,8.3 17,11.7 20,13.5 23,11.7 23,8.3 20,6.5 	"/>
</g>
<g class="st0">
	<polygon class="st2" points="9,8.3 9,11.7 12,13.5 15,11.7 15,8.3 12,6.5 	"/>
</g>
<g class="st0">
	<polygon class="st2" points="17,20.3 17,23.7 20,25.5 23,23.7 23,20.3 20,18.5 	"/>
</g>
<g class="st0">
	<polygon class="st2" points="9,20.3 9,23.7 12,25.5 15,23.7 15,20.3 12,18.5 	"/>
</g>
</svg>
