<?xml version="1.0" encoding="utf-8"?>
<!-- Generator: Adobe Illustrator 26.5.0, SVG Export Plug-In . SVG Version: 6.00 Build 0)  -->
<svg version="1.1" id="Ebene_1" xmlns="http://www.w3.org/2000/svg" xmlns:xlink="http://www.w3.org/1999/xlink" x="0px" y="0px"
	 viewBox="0 0 32 32" style="enable-background:new 0 0 32 32;" xml:space="preserve">
<style type="text/css">
	.st0{opacity:0.75;}
	.st1{fill:#B3B3B3;}
	.st2{fill:#36ABC6;}
</style>
<g class="st0">
	<polygon points="16,1.3 0.5,12.5 6.4,30.7 25.6,30.7 31.5,12.5 	"/>
</g>
<g>
	<path class="st1" d="M16,3.5l13.3,9.7l-5.1,15.7H7.8L2.7,13.1L16,3.5 M16,2.2L1.5,12.7l5.5,17h18l5.5-17L16,2.2L16,2.2z"/>
</g>
<g>
	<polygon class="st2" points="16,17.7 12.5,20.2 13.8,24.3 18.2,24.3 19.5,20.2 	"/>
</g>
<g>
	<polygon class="st2" points="12,19.3 15.5,16.8 14.2,12.7 9.8,12.7 8.5,16.8 	"/>
</g>
<g>
	<polygon class="st2" points="20,19.3 23.5,16.8 22.2,12.7 17.8,12.7 16.5,16.8 	"/>
</g>
</svg>
