<?xml version="1.0" encoding="utf-8"?>
<!-- Generator: Adobe Illustrator 26.5.0, SVG Export Plug-In . SVG Version: 6.00 Build 0)  -->
<svg version="1.1" id="Ebene_1" xmlns="http://www.w3.org/2000/svg" xmlns:xlink="http://www.w3.org/1999/xlink" x="0px" y="0px"
	 viewBox="0 0 32 32" style="enable-background:new 0 0 32 32;" xml:space="preserve">
<style type="text/css">
	.st0{opacity:0.75;}
	.st1{fill:#B3B3B3;}
	.st2{fill:#64D080;}
</style>
<g class="st0">
	<polygon points="2.2,8.1 2.2,23.9 16,31.9 29.8,23.9 29.8,8.1 16,0.1 	"/>
</g>
<g>
	<path class="st1" d="M16,2.1l12,6.9v13.9l-12,6.9L4,22.9V9.1L16,2.1 M16,1L3,8.5v15L16,31l13-7.5v-15L16,1L16,1z"/>
</g>
<g class="st0">
	<polygon class="st2" points="13,10.3 13,13.7 16,15.5 19,13.7 19,10.3 16,8.5 	"/>
</g>
<g class="st0">
	<polygon class="st2" points="20.3,10.3 20.3,13.7 23.3,15.5 26.3,13.7 26.3,10.3 23.3,8.5 	"/>
</g>
<g class="st0">
	<polygon class="st2" points="6,10.3 6,13.7 9,15.5 12,13.7 12,10.3 9,8.5 	"/>
</g>
<g class="st0">
	<polygon class="st2" points="16.8,16.3 16.8,19.7 19.8,21.5 22.8,19.7 22.8,16.3 19.8,14.5 	"/>
</g>
<g class="st0">
	<polygon class="st2" points="9.5,16.3 9.5,19.7 12.5,21.5 15.5,19.7 15.5,16.3 12.5,14.5 	"/>
</g>
<g class="st0">
	<polygon class="st2" points="13,22.3 13,25.7 16,27.5 19,25.7 19,22.3 16,20.5 	"/>
</g>
</svg>
