<?xml version="1.0" encoding="UTF-8"?>
<svg xmlns="http://www.w3.org/2000/svg" version="1.1" viewBox="0 0 24 24">
  <defs>
    <style>
      .cls-1 {
        fill: #e8eaed;
      }
    </style>
  </defs>
  <!-- Generator: Adobe Illustrator 28.6.0, SVG Export Plug-In . SVG Version: 1.2.0 Build 709)  -->
  <g>
    <g id="Ebene_1">
      <path class="cls-1" d="M7,21c-.6,0-1-.2-1.4-.6-.4-.4-.6-.9-.6-1.4V6h-1v-2h5v-1h6v1h5v2h-1v13c0,.6-.2,1-.6,1.4-.4.4-.9.6-1.4.6H7ZM17,6H7v13h10V6ZM9,17h2V8h-2v9ZM13,17h2V8h-2v9ZM7,6v13V6Z"/>
    </g>
  </g>
</svg>